<?xml version="1.0" standalone="no"?>
<!DOCTYPE svg PUBLIC "-//W3C//DTD SVG 20010904//EN"
 "http://www.w3.org/TR/2001/REC-SVG-20010904/DTD/svg10.dtd">
<svg version="1.0" xmlns="http://www.w3.org/2000/svg"
 width="386.000000pt" height="522.000000pt" viewBox="0 0 386.000000 522.000000"
 preserveAspectRatio="xMidYMid meet">

<g transform="translate(0.000000,522.000000) scale(0.100000,-0.100000)"
fill="#000000" stroke="none">
<path d="M1448 5132 c-4 -12 -2 -22 3 -22 5 0 9 -7 9 -16 0 -8 -4 -13 -8 -10
-5 3 -10 -576 -11 -1286 -1 -1032 1 -1294 11 -1306 7 -9 8 -13 2 -9 -8 4 -11
-7 -10 -37 0 -25 4 -42 9 -39 4 2 4 9 1 15 -5 7 -2 8 5 3 14 -8 9 -15 -120
-150 -412 -430 -629 -769 -693 -1078 -20 -96 -20 -272 -1 -357 79 -340 349
-584 700 -631 l90 -13 0 -60 0 -61 398 -3 397 -2 0 175 c0 112 4 175 10 175 6
0 57 -29 113 -65 219 -137 273 -150 582 -142 178 5 210 8 290 32 222 65 403
216 504 420 170 343 75 740 -290 1211 -214 277 -487 546 -1011 997 -109 93
-198 174 -198 180 0 5 -6 5 -14 -2 -9 -8 -84 -11 -252 -9 l-238 3 90 65 c315
228 489 563 487 940 -2 362 -171 693 -468 915 -104 78 -337 187 -364 171 -5
-4 -11 -1 -13 6 -3 7 -7 2 -10 -10z m762 -2717 c0 -327 -2 -595 -5 -595 -3 0
-171 81 -373 181 -202 99 -393 192 -424 207 -32 14 -58 29 -58 33 0 25 824
769 853 769 4 0 7 -268 7 -595z m227 433 c304 -262 653 -587 653 -608 0 -4
-82 -46 -182 -95 -101 -49 -290 -142 -421 -207 -131 -65 -243 -118 -248 -118
-5 0 -9 233 -9 595 0 364 4 595 9 595 6 0 94 -73 198 -162z m-957 -392 c0 -3
-4 -8 -10 -11 -5 -3 -10 -1 -10 4 0 6 5 11 10 11 6 0 10 -2 10 -4z m-39 -290
c63 -29 247 -119 409 -198 162 -79 310 -151 328 -159 l32 -14 0 -247 c0 -137
-2 -248 -4 -248 -3 0 -179 86 -393 191 -213 104 -477 233 -585 286 -109 53
-198 99 -198 102 0 13 284 341 295 341 1 0 54 -24 116 -54z m1746 -19 c193
-203 383 -455 468 -619 56 -108 99 -219 88 -228 -4 -4 -39 -19 -78 -33 -38
-14 -106 -39 -150 -55 -44 -16 -120 -44 -168 -62 -48 -18 -86 -34 -84 -36 2
-2 110 35 240 83 130 47 240 84 243 81 6 -7 17 -62 18 -95 1 -11 4 -19 9 -16
8 5 11 -75 8 -202 -2 -72 -21 -178 -35 -192 -8 -8 -180 -58 -786 -229 -283
-80 -536 -151 -562 -158 -46 -13 -47 -13 -107 25 l-61 38 0 134 c0 90 4 137
12 145 9 9 9 12 0 12 -9 0 -12 67 -12 273 l0 274 40 18 c22 10 38 20 36 22 -2
3 -18 -3 -35 -11 -16 -9 -33 -16 -36 -16 -3 0 -4 111 -3 247 l3 247 435 212
c239 117 438 213 441 213 4 1 38 -32 76 -72z m-1966 -381 c107 -51 298 -144
424 -205 127 -62 305 -149 398 -193 l167 -81 0 -275 c0 -215 -3 -273 -12 -269
-37 13 -57 14 -25 0 l37 -16 0 -138 0 -138 -58 -40 -59 -39 -119 33 c-65 19
-344 97 -619 175 -275 77 -537 152 -582 166 l-82 25 -15 69 c-22 93 -21 264 1
363 10 42 22 77 26 77 5 0 63 -20 130 -44 272 -99 630 -231 951 -350 186 -70
340 -125 342 -123 2 2 -197 79 -444 172 -246 92 -565 213 -710 268 l-264 101
6 31 c17 87 271 525 305 525 4 0 95 -42 202 -94z m-418 -1062 c72 -18 755
-204 967 -264 80 -22 174 -47 210 -56 36 -9 69 -20 73 -24 10 -9 -115 -83
-181 -107 -37 -13 -92 -18 -262 -21 -305 -6 -422 17 -581 113 -117 72 -236
202 -295 325 -28 59 -29 64 -9 56 9 -3 44 -13 78 -22z m2908 -28 c-69 -157
-215 -299 -385 -376 -130 -59 -167 -65 -451 -65 -259 0 -260 0 -323 26 -34 15
-87 42 -118 60 -45 28 -52 35 -37 41 22 9 503 142 968 268 187 50 345 93 350
94 18 5 17 -1 -4 -48z"/>
<path d="M2695 1520 c-3 -6 1 -7 9 -4 18 7 21 14 7 14 -6 0 -13 -4 -16 -10z"/>
<path d="M2650 1500 c-9 -6 -10 -10 -3 -10 6 0 15 5 18 10 8 12 4 12 -15 0z"/>
<path d="M2610 1480 c-9 -6 -10 -10 -3 -10 6 0 15 5 18 10 8 12 4 12 -15 0z"/>
<path d="M2570 1460 c-9 -6 -10 -10 -3 -10 6 0 15 5 18 10 8 12 4 12 -15 0z"/>
<path d="M2530 1440 c-9 -6 -10 -10 -3 -10 6 0 15 5 18 10 8 12 4 12 -15 0z"/>
<path d="M2325 1340 c-3 -6 1 -7 9 -4 18 7 21 14 7 14 -6 0 -13 -4 -16 -10z"/>
<path d="M3192 1093 c-24 -8 -41 -17 -39 -19 4 -5 97 26 97 32 0 6 -11 4 -58
-13z"/>
<path d="M3095 1055 c-25 -12 -26 -14 -5 -9 28 7 60 23 45 23 -5 0 -23 -6 -40
-14z"/>
<path d="M3002 1023 c-24 -8 -41 -17 -39 -19 4 -5 97 26 97 32 0 6 -11 4 -58
-13z"/>
<path d="M2920 990 c-8 -5 -10 -10 -5 -10 6 0 17 5 25 10 8 5 11 10 5 10 -5 0
-17 -5 -25 -10z"/>
<path d="M2825 955 c-25 -12 -26 -14 -5 -9 28 7 60 23 45 23 -5 0 -23 -6 -40
-14z"/>
<path d="M2760 930 c-8 -5 -10 -10 -5 -10 6 0 17 5 25 10 8 5 11 10 5 10 -5 0
-17 -5 -25 -10z"/>
<path d="M2700 910 c-18 -12 -2 -12 25 0 13 6 15 9 5 9 -8 0 -22 -4 -30 -9z"/>
<path d="M2650 890 c-8 -5 -10 -10 -5 -10 6 0 17 5 25 10 8 5 11 10 5 10 -5 0
-17 -5 -25 -10z"/>
<path d="M2600 870 c-8 -5 -10 -10 -5 -10 6 0 17 5 25 10 8 5 11 10 5 10 -5 0
-17 -5 -25 -10z"/>
<path d="M2540 850 c-8 -5 -10 -10 -5 -10 6 0 17 5 25 10 8 5 11 10 5 10 -5 0
-17 -5 -25 -10z"/>
<path d="M2490 830 c-8 -5 -10 -10 -5 -10 6 0 17 5 25 10 8 5 11 10 5 10 -5 0
-17 -5 -25 -10z"/>
<path d="M2330 770 c-8 -5 -10 -10 -5 -10 6 0 17 5 25 10 8 5 11 10 5 10 -5 0
-17 -5 -25 -10z"/>
</g>
</svg>
